<svg xmlns="http://www.w3.org/2000/svg" viewBox="0 0 920 1150" version="1.1" x="0px" y="0px"><path fill="#000000" opacity="1.00" d=" M 462.08 322.26 C 464.44 320.29 468.23 320.53 470.55 322.48 C 485.62 334.75 497.37 351.36 502.98 370.04 C 509.16 388.58 510.52 409.25 504.16 427.94 C 501.97 435.18 497.84 441.56 493.83 447.90 C 511.17 436.08 530.52 426.90 551.07 422.35 C 564.44 419.85 578.72 419.71 591.63 424.42 C 603.78 428.96 612.41 440.01 616.17 452.17 C 635.40 448.47 656.18 446.85 674.73 454.33 C 687.41 460.29 699.08 470.90 702.13 485.08 C 711.99 483.20 722.28 483.09 732.05 485.58 C 749.54 489.33 765.41 498.25 782.97 501.74 C 790.77 503.54 799.01 503.93 806.74 501.58 C 815.15 498.97 823.58 495.28 829.87 488.94 C 832.79 486.06 834.84 482.48 837.15 479.13 C 832.08 479.19 826.52 480.07 821.99 477.22 C 816.21 473.85 811.23 468.77 808.49 462.63 C 803.26 450.52 809.95 435.13 822.08 430.25 C 830.00 427.24 839.57 428.36 846.04 434.04 C 853.12 440.53 856.58 450.44 856.04 459.95 C 856.47 472.12 851.37 483.77 844.45 493.53 C 838.64 501.17 830.73 507.01 822.00 510.91 C 814.05 514.17 805.75 517.29 797.00 517.03 C 781.15 517.65 766.08 511.90 751.45 506.54 C 742.94 502.91 734.00 500.35 724.95 498.46 C 717.40 496.67 709.57 497.69 702.16 499.64 C 700.35 510.32 695.76 521.18 686.83 527.81 C 682.69 530.58 678.20 533.59 673.03 533.55 C 669.36 533.68 665.21 531.65 664.35 527.82 C 663.18 522.28 663.39 516.29 665.88 511.12 C 670.19 501.39 679.08 494.83 688.20 489.96 C 688.84 486.29 686.36 482.54 684.50 479.42 C 679.15 472.56 671.60 467.13 663.03 465.19 C 648.62 461.47 633.48 463.00 619.07 465.93 C 620.48 480.02 615.81 494.19 607.51 505.51 C 598.94 517.58 588.00 529.16 573.47 533.64 C 567.19 535.62 560.46 536.35 553.93 535.43 C 544.98 533.86 538.29 524.99 538.95 515.98 C 538.48 504.38 544.78 493.73 552.84 485.85 C 567.03 472.50 584.08 462.12 602.58 455.95 C 600.18 448.18 594.93 441.05 587.29 437.80 C 574.35 432.89 559.99 434.05 546.92 437.84 C 523.46 444.66 501.95 457.37 483.80 473.62 C 498.43 485.72 513.99 497.45 524.49 513.57 C 531.13 523.86 534.62 537.31 529.92 549.07 C 526.60 559.55 518.30 567.52 509.53 573.69 C 499.17 580.72 486.53 584.23 474.02 583.51 C 463.63 582.42 453.05 584.89 442.78 582.24 C 430.33 579.69 419.38 572.40 410.71 563.30 C 404.54 556.01 399.91 546.74 400.46 536.97 C 400.24 525.46 406.17 514.94 413.24 506.27 C 423.40 493.72 436.28 483.83 448.63 473.58 C 433.99 460.65 417.40 449.86 399.23 442.60 C 382.87 435.89 364.23 431.49 346.90 437.14 C 338.41 439.95 332.42 447.55 329.85 455.89 C 347.09 461.79 363.14 471.17 376.76 483.27 C 385.32 491.02 392.75 501.21 393.44 513.12 C 394.16 520.09 391.93 527.91 385.98 532.10 C 380.07 536.81 371.98 536.11 364.97 535.17 C 351.84 533.01 340.76 524.70 332.21 514.88 C 324.50 505.68 317.22 495.53 314.57 483.61 C 312.91 477.83 313.23 471.80 313.26 465.87 C 297.12 462.69 279.86 461.08 264.10 466.87 C 254.63 471.18 245.29 478.91 243.71 489.80 C 254.64 495.06 264.88 503.69 268.25 515.77 C 269.06 520.24 269.11 525.13 267.31 529.37 C 264.81 533.98 258.55 534.31 254.14 532.60 C 240.55 527.55 231.99 513.61 230.40 499.62 C 224.07 498.23 217.54 496.80 211.04 497.87 C 189.28 500.86 170.09 512.92 148.41 516.25 C 138.05 517.67 127.12 517.60 117.32 513.53 C 104.67 509.46 92.92 501.63 85.76 490.26 C 77.95 478.64 74.37 464.02 77.17 450.20 C 79.16 441.69 84.47 433.26 92.95 430.07 C 99.94 427.59 108.36 428.18 114.50 432.56 C 124.84 439.22 128.78 454.07 122.82 464.89 C 119.42 470.65 114.41 475.60 108.24 478.31 C 104.12 479.83 99.63 479.14 95.35 479.16 C 99.33 486.10 104.87 492.31 112.06 496.00 C 121.22 500.75 131.56 504.36 142.02 502.96 C 166.02 500.25 186.98 485.94 211.11 483.83 C 217.51 483.50 223.97 483.74 230.23 485.17 C 232.73 473.52 241.25 464.25 250.98 457.90 C 261.93 450.91 275.26 449.12 288.01 449.07 C 297.54 449.29 307.09 450.14 316.41 452.23 C 319.57 440.49 327.89 430.11 339.08 425.15 C 349.04 420.79 360.16 420.33 370.86 420.88 C 388.28 422.36 404.77 429.01 420.24 436.82 C 426.81 440.13 433.02 444.11 439.10 448.24 C 428.87 434.83 423.62 417.83 424.23 400.99 C 423.86 386.85 428.03 373.11 433.01 360.03 C 439.55 345.37 449.71 332.45 462.08 322.26 M 443.23 373.15 C 438.10 387.92 436.04 404.24 440.38 419.48 C 444.32 434.85 455.14 447.16 466.15 458.08 C 475.43 449.17 484.07 439.22 489.38 427.39 C 494.78 414.25 495.83 399.45 492.57 385.64 C 489.24 367.20 479.93 349.91 466.15 337.18 C 455.95 347.23 447.32 359.30 443.23 373.15 M 94.64 445.68 C 89.47 451.83 89.59 460.51 91.08 467.98 C 92.23 467.14 93.30 466.15 94.62 465.61 C 97.80 464.58 101.49 466.51 104.40 464.43 C 107.21 462.62 109.68 460.09 110.96 456.96 C 112.72 452.91 110.93 448.09 107.92 445.15 C 104.35 441.60 97.83 441.64 94.64 445.68 M 822.25 458.64 C 824.17 461.50 826.67 464.23 830.04 465.32 C 833.57 465.61 837.47 464.49 840.45 467.06 C 840.81 467.62 841.19 468.18 841.59 468.73 C 842.49 461.54 843.11 453.52 838.94 447.16 C 836.99 443.83 832.93 441.75 829.11 442.75 C 822.44 444.07 818.34 452.90 822.25 458.64 M 326.92 469.72 C 326.99 477.99 329.29 486.25 333.69 493.28 C 338.48 500.91 344.18 508.09 351.22 513.77 C 357.84 519.12 366.41 522.34 374.97 521.85 C 378.74 521.59 380.08 517.27 379.51 514.07 C 378.81 505.78 373.26 499.05 367.36 493.66 C 355.58 483.16 341.69 475.20 326.92 469.72 M 577.23 484.24 C 568.43 490.44 559.01 497.17 554.61 507.39 C 553.08 511.64 551.17 517.41 554.92 521.05 C 559.27 522.95 564.15 521.47 568.55 520.45 C 579.68 517.37 587.72 508.38 594.52 499.56 C 601.31 491.03 605.37 480.43 605.62 469.51 C 595.73 473.52 585.92 477.94 577.23 484.24 M 482.90 490.88 C 493.32 504.87 502.22 521.10 502.67 538.95 C 503.46 548.59 500.87 558.59 494.79 566.20 C 503.95 561.03 513.54 554.39 516.93 543.88 C 519.51 537.24 517.45 529.87 514.24 523.84 C 506.64 510.45 494.37 500.77 482.90 490.88 M 418.78 522.66 C 414.45 529.99 412.40 539.55 416.82 547.33 C 420.90 556.04 429.38 561.16 437.20 566.09 C 432.47 559.01 429.27 550.63 429.71 542.00 C 429.27 523.24 438.37 505.94 449.20 491.21 C 438.03 500.59 426.51 510.09 418.78 522.66 M 443.95 536.03 C 441.94 546.59 446.16 558.77 455.88 564.09 C 459.39 565.78 462.94 568.17 466.97 568.06 C 474.99 566.05 483.05 561.21 486.32 553.26 C 490.49 544.84 488.81 535.10 486.44 526.43 C 482.45 513.67 474.55 502.65 466.16 492.42 C 455.95 505.22 445.96 519.33 443.95 536.03 M 678.76 516.46 C 681.21 514.44 683.06 511.80 684.66 509.08 C 682.25 511.16 680.28 513.68 678.76 516.46 Z"/><text x="0" y="935" fill="#000000" font-size="5px" font-weight="bold" font-family="'Helvetica Neue', Helvetica, Arial-Unicode, Arial, Sans-serif">Created by LSE Designs</text><text x="0" y="940" fill="#000000" font-size="5px" font-weight="bold" font-family="'Helvetica Neue', Helvetica, Arial-Unicode, Arial, Sans-serif">from the Noun Project</text></svg>